<svg version="1.0" xmlns="http://www.w3.org/2000/svg" width="500.000000pt" height="500.000000pt" viewBox="0 0 500.000000 500.000000" preserveAspectRatio="xMidYMid meet">

<g transform="translate(0.000000,500.000000) scale(0.100000,-0.100000)" fill="#7b5a30" stroke="none">
<path d="M2432 4989 c-246 -37 -472 -217 -553 -441 -12 -32 -23 -58 -25 -58 -3 0 -28 13 -57 29 -411 229 -939 -56 -975 -528 l-7 -85 -70 -12 c-336 -58 -576 -344 -577 -689 -2 -273 150 -514 397 -631 104 -50 175 -65 328 -71 l137 -6 0 -201 -1 -201 -66 -30 c-224 -100 -317 -381 -202 -607 33 -65 122 -151 192 -187 169 -86 363 -57 505 74 66 61 104 125 127 210 53 205 -50 426 -238 510 l-66 30 -1 203 0 202 305 0 305 0 0 -553 c0 -507 -1 -555 -17 -584 -10 -18 -72 -98 -138 -178 -88 -107 -123 -144 -135 -139 -8 4 -49 16 -90 27 -66 18 -84 19 -153 9 -179 -26 -310 -134 -368 -304 -17 -52 -20 -80 -17 -159 3 -87 7 -104 40 -171 46 -92 122 -167 215 -211 64 -30 74 -32 183 -32 109 0 119 2 183 32 224 106 322 360 226 584 l-21 47 134 163 c74 90 144 180 155 199 52 87 53 102 53 707 l0 563 198 -2 197 -3 3 -812 2 -812 -60 -32 c-70 -37 -148 -116 -183 -185 -59 -119 -63 -273 -9 -389 83 -176 280 -284 466 -255 197 30 345 178 378 374 31 185 -74 384 -246 465 -35 17 -71 31 -80 31 -15 0 -16 73 -16 810 l0 810 195 0 195 0 0 -324 c0 -434 1 -436 208 -648 l115 -118 -16 -57 c-24 -86 -28 -132 -16 -203 30 -189 176 -335 367 -370 131 -23 283 25 379 119 100 98 138 198 131 346 -3 82 -8 101 -41 167 -45 92 -121 167 -214 211 -64 30 -74 32 -183 32 -105 0 -120 -2 -174 -28 l-60 -28 -108 108 c-59 59 -115 122 -123 139 -12 26 -15 87 -15 342 l0 310 408 4 c455 5 461 6 607 78 242 119 387 352 387 625 0 342 -237 626 -572 689 l-65 12 -7 69 c-21 216 -159 412 -353 505 -106 51 -170 65 -290 64 -107 0 -182 -17 -267 -60 -26 -13 -51 -24 -55 -24 -5 0 -20 33 -33 72 -103 302 -440 505 -758 457z m233 -264 c180 -50 315 -234 315 -429 0 -232 -165 -418 -398 -448 -42 -6 -90 -15 -106 -21 -65 -24 -88 -129 -40 -186 38 -45 85 -56 183 -42 259 38 442 177 561 427 28 58 68 124 91 149 51 56 159 111 234 120 212 27 418 -138 433 -346 l4 -65 -48 -18 c-247 -91 -423 -315 -455 -578 -14 -110 -2 -154 53 -188 78 -49 188 9 188 99 0 166 112 344 261 414 226 106 494 7 603 -223 29 -61 31 -72 31 -185 0 -116 -1 -123 -33 -187 -66 -134 -178 -223 -319 -253 -58 -12 -324 -15 -1724 -15 -1086 0 -1675 4 -1710 10 -138 26 -264 121 -324 244 -136 277 33 599 339 646 38 6 69 9 71 8 1 -2 19 -32 41 -68 78 -131 213 -236 369 -287 64 -20 101 -26 185 -27 150 -1 200 30 200 125 0 85 -62 132 -161 122 -100 -10 -224 34 -304 108 -96 88 -141 200 -133 328 7 108 38 179 108 255 197 210 525 168 667 -85 46 -82 107 -107 179 -73 56 27 67 60 59 178 -11 158 26 271 121 370 121 126 284 169 459 121z m-1426 -2885 c138 -70 147 -253 18 -338 -33 -22 -52 -27 -102 -27 -73 0 -128 30 -165 90 -100 162 81 361 249 275z m2759 -449 c74 -38 106 -97 100 -187 -3 -52 -9 -70 -34 -101 -40 -51 -96 -77 -160 -76 -57 0 -85 12 -132 56 -90 86 -66 247 46 307 49 25 131 26 180 1z m-2533 -562 c54 -15 120 -82 135 -138 44 -163 -140 -301 -286 -216 -140 82 -119 296 33 350 47 17 67 18 118 4z m1325 -209 c48 -26 100 -114 100 -170 0 -63 -54 -146 -114 -177 -77 -40 -193 -7 -243 69 -24 35 -28 52 -28 108 0 56 4 73 27 108 54 80 171 109 258 62z" fill="#7b5a30"/>
</g>
</svg>