<?xml version="1.0" standalone="no"?>
<!DOCTYPE svg PUBLIC "-//W3C//DTD SVG 20010904//EN"
 "http://www.w3.org/TR/2001/REC-SVG-20010904/DTD/svg10.dtd">
<svg version="1.0" xmlns="http://www.w3.org/2000/svg"
 width="721.000000pt" height="876.000000pt" viewBox="0 0 721.000000 876.000000"
 preserveAspectRatio="xMidYMid meet">

<g transform="translate(0.000000,876.000000) scale(0.100000,-0.100000)"
fill="#000000" stroke="none">
<path d="M2910 8255 c-47 -7 -109 -21 -139 -30 -57 -19 -164 -68 -184 -85 -7
-5 -36 -28 -64 -50 -29 -22 -77 -70 -107 -106 -54 -65 -126 -195 -126 -226 0
-9 -4 -19 -9 -22 -5 -3 -12 -21 -15 -40 -8 -40 -51 -66 -113 -66 -60 -1 -179
-36 -270 -81 -88 -44 -166 -106 -223 -177 -19 -23 -41 -49 -49 -57 -25 -30
-100 -183 -107 -221 -3 -22 -11 -44 -16 -51 -15 -19 -21 -212 -9 -296 14 -97
7 -111 -62 -132 -348 -103 -582 -459 -537 -818 19 -152 79 -296 170 -407 l45
-55 5 -768 5 -767 499 -499 499 -499 56 -1 c70 0 98 -10 145 -52 90 -79 108
-203 43 -300 -36 -53 -120 -99 -183 -99 -132 0 -234 101 -234 232 l0 63 -209
209 c-192 191 -210 207 -216 185 -10 -41 -1 -699 10 -707 6 -4 28 -29 50 -57
21 -27 42 -52 45 -55 4 -3 55 -63 115 -135 60 -71 111 -132 114 -135 5 -5 75
-86 128 -150 12 -14 79 -93 150 -176 70 -83 146 -172 168 -199 22 -26 45 -53
50 -59 6 -6 32 -38 60 -71 27 -33 59 -71 71 -85 13 -14 54 -63 94 -110 165
-198 213 -253 234 -272 18 -17 71 -18 831 -18 l812 0 44 52 c58 68 105 124
154 182 22 27 45 54 50 60 6 6 32 38 59 71 28 33 57 67 65 76 9 9 34 37 56 64
22 26 123 146 225 266 102 120 201 237 220 260 19 23 89 106 155 183 66 78
154 181 195 231 l75 90 3 335 c1 207 -2 341 -8 350 -8 12 -50 -25 -215 -190
l-205 -205 0 -53 c0 -129 -100 -231 -226 -232 -63 0 -109 18 -152 61 -96 94
-100 226 -11 324 44 48 87 65 160 65 l63 0 498 497 498 497 0 759 c0 498 4
765 10 777 6 11 32 48 59 83 40 54 86 138 121 222 17 42 34 143 38 230 4 91
-14 201 -44 272 -8 17 -14 36 -14 41 0 13 -31 72 -47 90 -7 7 -13 18 -13 23 0
13 -36 55 -120 140 -79 79 -169 137 -275 175 -109 39 -99 24 -90 138 10 127
10 146 1 226 -22 191 -132 380 -294 508 -101 81 -284 152 -387 152 -53 0 -104
27 -111 59 -16 75 -72 192 -124 261 -137 180 -299 275 -518 305 -161 21 -314
-5 -450 -77 -64 -34 -124 -72 -143 -90 -66 -61 -110 -98 -119 -98 -5 0 -41 28
-79 63 -125 114 -263 179 -426 202 -55 8 -104 14 -110 14 -5 -1 -48 -7 -95
-14z m16 -170 c14 -21 15 -32 5 -69 -7 -30 -11 -194 -11 -487 l0 -441 -27 -25
c-26 -23 -166 -106 -481 -285 -67 -38 -127 -78 -132 -88 -6 -11 -10 -134 -10
-304 l0 -286 -31 -27 c-52 -47 -83 -110 -83 -168 2 -119 89 -202 197 -190 56
7 114 31 135 55 50 59 67 153 37 209 -8 16 -32 48 -55 71 l-40 42 0 248 0 248
38 29 c20 16 55 38 77 50 22 11 56 30 75 42 19 11 44 25 55 31 11 6 34 19 50
30 17 11 37 23 45 27 8 4 47 26 86 50 39 24 76 43 82 43 6 0 12 3 14 8 2 4 21
16 42 27 22 11 50 28 63 38 l23 18 0 549 c0 485 2 550 16 564 27 28 64 20 183
-38 53 -26 226 -190 240 -229 8 -19 11 -306 11 -892 l0 -864 -44 -50 c-24 -27
-49 -66 -56 -86 -25 -75 6 -176 68 -223 32 -24 43 -27 109 -24 50 1 83 8 101
20 34 22 62 49 62 61 0 5 7 14 15 21 11 9 15 32 15 78 0 69 -19 114 -64 150
-13 9 -28 27 -34 39 -9 16 -12 250 -12 886 l0 864 29 44 c84 125 240 232 374
256 43 8 71 -22 61 -67 -4 -19 -9 -268 -11 -552 l-3 -517 42 -24 c38 -22 203
-116 500 -286 66 -38 101 -64 108 -82 7 -16 10 -106 8 -251 l-3 -226 -47 -49
c-83 -90 -89 -195 -16 -279 46 -52 75 -64 144 -57 76 7 127 33 159 80 21 32
25 49 25 111 l0 73 -47 51 -48 50 -5 297 c-3 163 -9 302 -13 309 -5 7 -32 26
-60 43 -29 16 -59 34 -67 39 -68 42 -350 202 -410 232 -121 63 -110 5 -110
578 0 591 -9 550 117 510 34 -10 79 -30 100 -43 66 -42 178 -154 221 -219 44
-68 87 -184 97 -263 13 -108 19 -113 81 -84 44 21 109 24 169 8 22 -6 58 -14
81 -18 69 -12 171 -78 255 -163 64 -64 88 -98 124 -171 87 -181 87 -349 1
-547 l-35 -81 26 -10 c16 -6 38 -6 62 1 51 13 178 -10 250 -47 50 -25 157
-116 210 -177 84 -98 151 -279 151 -410 0 -103 -69 -287 -132 -352 l-30 -32
-151 -6 c-84 -3 -175 -9 -203 -12 -84 -10 -84 -9 -84 235 l0 208 43 43 c30 28
49 58 60 94 16 49 16 55 -1 102 -43 116 -77 144 -174 144 -114 0 -189 -71
-196 -185 -5 -72 10 -109 67 -168 l36 -38 3 -182 c2 -108 -1 -194 -7 -209
l-10 -27 -498 -5 c-274 -2 -521 -7 -549 -11 -88 -12 -84 -31 -84 400 l0 373
38 33 c59 53 74 84 74 149 0 94 -54 179 -126 200 -92 25 -188 -17 -230 -102
-45 -91 -30 -175 45 -248 l39 -39 0 -359 c0 -271 -3 -362 -12 -375 -12 -15
-57 -17 -458 -21 -245 -2 -469 -7 -498 -11 -43 -6 -57 -4 -73 11 -18 16 -19
34 -19 390 l0 372 36 34 c58 54 74 88 74 154 0 51 -5 67 -39 120 -34 53 -44
62 -84 74 -128 35 -256 -63 -257 -197 0 -58 15 -91 63 -141 l42 -43 3 -359 c2
-240 -1 -367 -8 -380 -10 -19 -24 -20 -503 -24 -270 -2 -516 -7 -545 -11 -84
-11 -82 -16 -82 231 l0 214 44 46 c75 78 82 168 20 265 -38 61 -62 72 -148 67
-65 -3 -79 -7 -112 -34 -53 -42 -79 -97 -78 -164 0 -63 18 -104 69 -155 l35
-34 0 -199 c0 -148 -3 -202 -12 -210 -7 -5 -85 -12 -173 -16 -88 -3 -177 -8
-198 -12 -34 -6 -41 -3 -73 31 -37 39 -83 122 -111 202 -21 59 -25 325 -5 345
7 7 12 18 12 26 0 20 38 100 75 158 112 175 307 280 528 283 52 1 58 12 33 59
-19 38 -41 97 -61 167 -27 98 -14 251 32 365 101 253 368 417 639 394 39 -4
74 -3 77 2 3 5 11 38 17 74 30 164 75 255 179 358 37 37 75 73 84 80 25 19
116 64 167 83 66 24 87 23 106 -6z m476 -3673 c10 -10 14 -190 16 -910 2 -697
5 -898 15 -904 6 -4 110 -8 229 -8 255 0 238 9 238 -124 0 -123 22 -116 -355
-115 -256 0 -314 2 -332 15 l-23 14 -2 903 -3 902 -616 5 c-721 6 -659 -5
-659 117 0 65 3 77 25 99 l24 24 715 -2 c570 -2 718 -6 728 -16z m1905 -5 c13
-13 19 -38 21 -95 6 -128 75 -116 -702 -120 -363 -1 -671 0 -683 3 -42 10 -53
32 -53 105 0 79 11 116 37 123 10 3 320 4 690 3 630 -1 673 -2 690 -19z
m-2313 -502 c10 -11 12 -25 5 -62 -5 -26 -14 -52 -19 -57 -6 -6 -10 -19 -10
-31 -1 -11 -10 -31 -21 -45 l-21 -25 -338 0 c-390 0 -365 -6 -399 101 -28 83
-27 112 2 124 12 4 194 9 404 9 316 0 385 -2 397 -14z m2056 2 c18 -9 24 -20
22 -37 -5 -47 -44 -160 -60 -172 -21 -18 -657 -22 -692 -5 -33 17 -68 93 -77
169 -4 33 -2 39 18 47 13 5 191 9 394 10 285 1 376 -2 395 -12z m-796 -1913
c12 -11 16 -36 16 -95 0 -131 65 -119 -646 -119 -398 0 -612 4 -625 10 -17 10
-19 22 -19 110 0 69 4 100 13 103 6 3 290 6 629 6 548 1 618 -1 632 -15z
m-365 -383 c19 -19 61 -140 61 -176 0 -42 -21 -44 -331 -45 -277 0 -297 1
-313 19 -15 16 -15 25 -5 67 6 27 16 53 20 59 5 5 9 16 9 26 0 9 9 28 21 43
l20 26 250 0 c233 0 250 -1 268 -19z"/>
</g>
</svg>
